<svg xmlns="http://www.w3.org/2000/svg" width="512" height="512" viewBox="0 0 512 512">
  <rect width="512" height="512" rx="112" fill="#2C7A7B"/>
  <!-- back page (depth) -->
  <rect x="182" y="150" width="196" height="248" rx="14" fill="#E7DDC6"/>
  <!-- newspaper (front) -->
  <rect x="134" y="130" width="196" height="248" rx="16" fill="#FFFFFF" stroke="#263238" stroke-width="12"/>
  <!-- masthead -->
  <rect x="156" y="154" width="152" height="40" rx="4" fill="#263238"/>
  <!-- rule -->
  <rect x="156" y="206" width="152" height="9" rx="4" fill="#263238"/>
  <!-- article photo -->
  <rect x="156" y="230" width="64" height="60" rx="6" fill="#E4572E" stroke="#263238" stroke-width="6"/>
  <!-- lines beside the photo -->
  <rect x="234" y="234" width="74" height="10" rx="5" fill="#9AA0A6"/>
  <rect x="234" y="254" width="74" height="10" rx="5" fill="#9AA0A6"/>
  <rect x="234" y="274" width="74" height="10" rx="5" fill="#9AA0A6"/>
  <!-- full-width lines -->
  <rect x="156" y="308" width="152" height="10" rx="5" fill="#9AA0A6"/>
  <rect x="156" y="330" width="152" height="10" rx="5" fill="#9AA0A6"/>
  <rect x="156" y="352" width="104" height="10" rx="5" fill="#9AA0A6"/>
</svg>
